G04 #@! TF.FileFunction,Copper,L1,Top,Signal*
%FSLAX46Y46*%
G04 Gerber Fmt 4.6, Leading zero omitted, Abs format (unit mm)*
G04 Created by KiCad (PCBNEW 4.0.7-e1-6374~58~ubuntu17.04.1) date Mon Jul 31 10:08:06 2017*
%MOMM*%
%LPD*%
G01*
G04 APERTURE LIST*
%ADD10C,0.100000*%
%ADD11C,2.000000*%
%ADD12R,1.399540X2.999740*%
%ADD13C,1.000000*%
%ADD14C,0.554000*%
G04 APERTURE END LIST*
D10*
D11*
X20320000Y21590000D03*
X20320000Y19050000D03*
X2540000Y6350000D03*
X5080000Y6350000D03*
X17780000Y6350000D03*
X20320000Y6350000D03*
X7620000Y6350000D03*
X10160000Y6350000D03*
X15240000Y6350000D03*
X12700000Y6350000D03*
X20320000Y13970000D03*
X17780000Y13970000D03*
X15240000Y13970000D03*
X12700000Y13970000D03*
X10160000Y13970000D03*
X7620000Y13970000D03*
X5080000Y13970000D03*
X2540000Y13970000D03*
X26670000Y6350000D03*
X26670000Y8850000D03*
X26670000Y11350000D03*
X26670000Y13850000D03*
X26670000Y16350000D03*
X26670000Y18850000D03*
X7620000Y17780000D03*
X10160000Y17780000D03*
X26670000Y25400000D03*
X29210000Y25400000D03*
X24130000Y25400000D03*
D12*
X34290000Y17719040D03*
X34290000Y22920960D03*
D11*
X34290000Y15318740D03*
X34290000Y25321260D03*
X34290000Y5080000D03*
X34290000Y7620000D03*
X34290000Y10160000D03*
X10160000Y2540000D03*
X7620000Y2540000D03*
D13*
X20320000Y21590000D02*
X24130000Y25400000D01*
X20320000Y19050000D02*
X20320000Y17780000D01*
X24250000Y13850000D02*
X26670000Y13850000D01*
X20320000Y17780000D02*
X24250000Y13850000D01*
X26550000Y13970000D02*
X26670000Y13850000D01*
X26670000Y11350000D02*
X33100000Y11350000D01*
X33100000Y11350000D02*
X34290000Y10160000D01*
X20320000Y13970000D02*
X21590000Y13970000D01*
X24210000Y11350000D02*
X26670000Y11350000D01*
X21590000Y13970000D02*
X24210000Y11350000D01*
X2540000Y13970000D02*
X2540000Y17780000D01*
X13970000Y20320000D02*
X20320000Y13970000D01*
X5080000Y20320000D02*
X13970000Y20320000D01*
X2540000Y17780000D02*
X5080000Y20320000D01*
X20320000Y13970000D02*
X20320000Y7620000D01*
X20320000Y7620000D02*
X20320000Y6350000D01*
X2540000Y13970000D02*
X2540000Y6350000D01*
X17780000Y6350000D02*
X17780000Y5080000D01*
X17780000Y5080000D02*
X19050000Y3810000D01*
X24130000Y3810000D02*
X26670000Y6350000D01*
X19050000Y3810000D02*
X24130000Y3810000D01*
X17780000Y6350000D02*
X17780000Y13970000D01*
X7620000Y2540000D02*
X7620000Y6350000D01*
X10160000Y2540000D02*
X12700000Y2540000D01*
X15240000Y5080000D02*
X15240000Y6350000D01*
X12700000Y2540000D02*
X15240000Y5080000D01*
X10160000Y17780000D02*
X12700000Y17780000D01*
X15240000Y15240000D02*
X15240000Y13970000D01*
X12700000Y17780000D02*
X15240000Y15240000D01*
X7620000Y17780000D02*
X7620000Y13970000D01*
X26670000Y8850000D02*
X30440000Y8850000D01*
X31750000Y5080000D02*
X34290000Y5080000D01*
X31750000Y7540000D02*
X31750000Y5080000D01*
X30440000Y8850000D02*
X31750000Y7540000D01*
X26670000Y18850000D02*
X30758740Y18850000D01*
X30758740Y18850000D02*
X34290000Y15318740D01*
X26670000Y25400000D02*
X26670000Y18850000D01*
D14*
G36*
X37823000Y277000D02*
X277000Y277000D01*
X277000Y13598280D01*
X662675Y13598280D01*
X947829Y12908154D01*
X1163000Y12692607D01*
X1163000Y7627567D01*
X949684Y7414624D01*
X663326Y6724996D01*
X662675Y5978280D01*
X947829Y5288154D01*
X1475376Y4759684D01*
X2165004Y4473326D01*
X2911720Y4472675D01*
X3601846Y4757829D01*
X4130316Y5285376D01*
X4416674Y5975004D01*
X4417325Y6721720D01*
X4132171Y7411846D01*
X3917000Y7627393D01*
X3917000Y12692433D01*
X4130316Y12905376D01*
X4416674Y13595004D01*
X4417325Y14341720D01*
X4132171Y15031846D01*
X3917000Y15247393D01*
X3917000Y17209628D01*
X5650372Y18943000D01*
X6128232Y18943000D01*
X6029684Y18844624D01*
X5743326Y18154996D01*
X5742675Y17408280D01*
X6027829Y16718154D01*
X6243000Y16502607D01*
X6243000Y15247567D01*
X6029684Y15034624D01*
X5743326Y14344996D01*
X5742675Y13598280D01*
X6027829Y12908154D01*
X6555376Y12379684D01*
X7245004Y12093326D01*
X7991720Y12092675D01*
X8681846Y12377829D01*
X9210316Y12905376D01*
X9496674Y13595004D01*
X9497325Y14341720D01*
X9212171Y15031846D01*
X8997000Y15247393D01*
X8997000Y16288232D01*
X9095376Y16189684D01*
X9785004Y15903326D01*
X10531720Y15902675D01*
X11221846Y16187829D01*
X11437393Y16403000D01*
X12129628Y16403000D01*
X13605181Y14927447D01*
X13363326Y14344996D01*
X13362675Y13598280D01*
X13647829Y12908154D01*
X14175376Y12379684D01*
X14865004Y12093326D01*
X15611720Y12092675D01*
X16301846Y12377829D01*
X16403000Y12478806D01*
X16403000Y7841768D01*
X16304624Y7940316D01*
X15614996Y8226674D01*
X14868280Y8227325D01*
X14178154Y7942171D01*
X13649684Y7414624D01*
X13363326Y6724996D01*
X13362675Y5978280D01*
X13604835Y5392207D01*
X12129628Y3917000D01*
X11437567Y3917000D01*
X11224624Y4130316D01*
X10534996Y4416674D01*
X9788280Y4417325D01*
X9098154Y4132171D01*
X8997000Y4031194D01*
X8997000Y5072433D01*
X9210316Y5285376D01*
X9496674Y5975004D01*
X9497325Y6721720D01*
X9212171Y7411846D01*
X8684624Y7940316D01*
X7994996Y8226674D01*
X7248280Y8227325D01*
X6558154Y7942171D01*
X6029684Y7414624D01*
X5743326Y6724996D01*
X5742675Y5978280D01*
X6027829Y5288154D01*
X6243000Y5072607D01*
X6243000Y3817567D01*
X6029684Y3604624D01*
X5743326Y2914996D01*
X5742675Y2168280D01*
X6027829Y1478154D01*
X6555376Y949684D01*
X7245004Y663326D01*
X7991720Y662675D01*
X8681846Y947829D01*
X8889900Y1155520D01*
X9095376Y949684D01*
X9785004Y663326D01*
X10531720Y662675D01*
X11221846Y947829D01*
X11437393Y1163000D01*
X12700000Y1163000D01*
X13226955Y1267818D01*
X13673686Y1566314D01*
X16213686Y4106314D01*
X16510000Y4549779D01*
X16806314Y4106314D01*
X18076314Y2836314D01*
X18523045Y2537818D01*
X19050000Y2433000D01*
X24130000Y2433000D01*
X24656955Y2537818D01*
X25103686Y2836314D01*
X26740310Y4472938D01*
X27041720Y4472675D01*
X27731846Y4757829D01*
X28260316Y5285376D01*
X28546674Y5975004D01*
X28547325Y6721720D01*
X28262171Y7411846D01*
X28201124Y7473000D01*
X29869628Y7473000D01*
X30373000Y6969628D01*
X30373000Y5080000D01*
X30477818Y4553045D01*
X30776314Y4106314D01*
X31223045Y3807818D01*
X31750000Y3703000D01*
X33012433Y3703000D01*
X33225376Y3489684D01*
X33915004Y3203326D01*
X34661720Y3202675D01*
X35351846Y3487829D01*
X35880316Y4015376D01*
X36166674Y4705004D01*
X36167325Y5451720D01*
X35882171Y6141846D01*
X35354624Y6670316D01*
X34664996Y6956674D01*
X33918280Y6957325D01*
X33228154Y6672171D01*
X33127000Y6571194D01*
X33127000Y7540000D01*
X33022182Y8066955D01*
X32723686Y8513686D01*
X31413686Y9823686D01*
X31190222Y9973000D01*
X32412836Y9973000D01*
X32412675Y9788280D01*
X32697829Y9098154D01*
X33225376Y8569684D01*
X33915004Y8283326D01*
X34661720Y8282675D01*
X35351846Y8567829D01*
X35880316Y9095376D01*
X36166674Y9785004D01*
X36167325Y10531720D01*
X35882171Y11221846D01*
X35354624Y11750316D01*
X34664996Y12036674D01*
X34360432Y12036940D01*
X34073686Y12323686D01*
X33626955Y12622182D01*
X33100000Y12727000D01*
X28201838Y12727000D01*
X28260316Y12785376D01*
X28546674Y13475004D01*
X28547325Y14221720D01*
X28262171Y14911846D01*
X27734624Y15440316D01*
X27044996Y15726674D01*
X26298280Y15727325D01*
X25608154Y15442171D01*
X25392607Y15227000D01*
X24820372Y15227000D01*
X21954819Y18092553D01*
X22196674Y18675004D01*
X22197325Y19421720D01*
X21912171Y20111846D01*
X21704480Y20319900D01*
X21910316Y20525376D01*
X22196674Y21215004D01*
X22196940Y21519568D01*
X24200310Y23522938D01*
X24501720Y23522675D01*
X25191846Y23807829D01*
X25293000Y23908806D01*
X25293000Y20127567D01*
X25079684Y19914624D01*
X24793326Y19224996D01*
X24792675Y18478280D01*
X25077829Y17788154D01*
X25605376Y17259684D01*
X26295004Y16973326D01*
X27041720Y16972675D01*
X27731846Y17257829D01*
X27947393Y17473000D01*
X30188368Y17473000D01*
X32412938Y15248430D01*
X32412675Y14947020D01*
X32697829Y14256894D01*
X33225376Y13728424D01*
X33915004Y13442066D01*
X34661720Y13441415D01*
X35351846Y13726569D01*
X35880316Y14254116D01*
X36166674Y14943744D01*
X36167325Y15690460D01*
X35883951Y16376278D01*
X35883951Y19218910D01*
X35822799Y19543907D01*
X35630726Y19842396D01*
X35337656Y20042642D01*
X34989770Y20113091D01*
X33590230Y20113091D01*
X33265233Y20051939D01*
X32966744Y19859866D01*
X32766498Y19566796D01*
X32696049Y19218910D01*
X32696049Y18860063D01*
X31732426Y19823686D01*
X31285695Y20122182D01*
X30758740Y20227000D01*
X28047000Y20227000D01*
X28047000Y24122433D01*
X28260316Y24335376D01*
X28546674Y25025004D01*
X28547325Y25771720D01*
X28262171Y26461846D01*
X27734624Y26990316D01*
X27044996Y27276674D01*
X26298280Y27277325D01*
X25608154Y26992171D01*
X25400100Y26784480D01*
X25194624Y26990316D01*
X24504996Y27276674D01*
X23758280Y27277325D01*
X23068154Y26992171D01*
X22539684Y26464624D01*
X22253326Y25774996D01*
X22253060Y25470432D01*
X20249690Y23467062D01*
X19948280Y23467325D01*
X19258154Y23182171D01*
X18729684Y22654624D01*
X18443326Y21964996D01*
X18442675Y21218280D01*
X18727829Y20528154D01*
X18935520Y20320100D01*
X18729684Y20114624D01*
X18443326Y19424996D01*
X18442675Y18678280D01*
X18727829Y17988154D01*
X18944837Y17770767D01*
X19047818Y17253045D01*
X19175668Y17061704D01*
X14943686Y21293686D01*
X14496955Y21592182D01*
X13970000Y21697000D01*
X5080000Y21697000D01*
X4553045Y21592182D01*
X4106314Y21293686D01*
X1566314Y18753686D01*
X1267818Y18306955D01*
X1163000Y17780000D01*
X1163000Y15247567D01*
X949684Y15034624D01*
X663326Y14344996D01*
X662675Y13598280D01*
X277000Y13598280D01*
X277000Y27663000D01*
X37823000Y27663000D01*
X37823000Y277000D01*
X37823000Y277000D01*
G37*
X37823000Y277000D02*
X277000Y277000D01*
X277000Y13598280D01*
X662675Y13598280D01*
X947829Y12908154D01*
X1163000Y12692607D01*
X1163000Y7627567D01*
X949684Y7414624D01*
X663326Y6724996D01*
X662675Y5978280D01*
X947829Y5288154D01*
X1475376Y4759684D01*
X2165004Y4473326D01*
X2911720Y4472675D01*
X3601846Y4757829D01*
X4130316Y5285376D01*
X4416674Y5975004D01*
X4417325Y6721720D01*
X4132171Y7411846D01*
X3917000Y7627393D01*
X3917000Y12692433D01*
X4130316Y12905376D01*
X4416674Y13595004D01*
X4417325Y14341720D01*
X4132171Y15031846D01*
X3917000Y15247393D01*
X3917000Y17209628D01*
X5650372Y18943000D01*
X6128232Y18943000D01*
X6029684Y18844624D01*
X5743326Y18154996D01*
X5742675Y17408280D01*
X6027829Y16718154D01*
X6243000Y16502607D01*
X6243000Y15247567D01*
X6029684Y15034624D01*
X5743326Y14344996D01*
X5742675Y13598280D01*
X6027829Y12908154D01*
X6555376Y12379684D01*
X7245004Y12093326D01*
X7991720Y12092675D01*
X8681846Y12377829D01*
X9210316Y12905376D01*
X9496674Y13595004D01*
X9497325Y14341720D01*
X9212171Y15031846D01*
X8997000Y15247393D01*
X8997000Y16288232D01*
X9095376Y16189684D01*
X9785004Y15903326D01*
X10531720Y15902675D01*
X11221846Y16187829D01*
X11437393Y16403000D01*
X12129628Y16403000D01*
X13605181Y14927447D01*
X13363326Y14344996D01*
X13362675Y13598280D01*
X13647829Y12908154D01*
X14175376Y12379684D01*
X14865004Y12093326D01*
X15611720Y12092675D01*
X16301846Y12377829D01*
X16403000Y12478806D01*
X16403000Y7841768D01*
X16304624Y7940316D01*
X15614996Y8226674D01*
X14868280Y8227325D01*
X14178154Y7942171D01*
X13649684Y7414624D01*
X13363326Y6724996D01*
X13362675Y5978280D01*
X13604835Y5392207D01*
X12129628Y3917000D01*
X11437567Y3917000D01*
X11224624Y4130316D01*
X10534996Y4416674D01*
X9788280Y4417325D01*
X9098154Y4132171D01*
X8997000Y4031194D01*
X8997000Y5072433D01*
X9210316Y5285376D01*
X9496674Y5975004D01*
X9497325Y6721720D01*
X9212171Y7411846D01*
X8684624Y7940316D01*
X7994996Y8226674D01*
X7248280Y8227325D01*
X6558154Y7942171D01*
X6029684Y7414624D01*
X5743326Y6724996D01*
X5742675Y5978280D01*
X6027829Y5288154D01*
X6243000Y5072607D01*
X6243000Y3817567D01*
X6029684Y3604624D01*
X5743326Y2914996D01*
X5742675Y2168280D01*
X6027829Y1478154D01*
X6555376Y949684D01*
X7245004Y663326D01*
X7991720Y662675D01*
X8681846Y947829D01*
X8889900Y1155520D01*
X9095376Y949684D01*
X9785004Y663326D01*
X10531720Y662675D01*
X11221846Y947829D01*
X11437393Y1163000D01*
X12700000Y1163000D01*
X13226955Y1267818D01*
X13673686Y1566314D01*
X16213686Y4106314D01*
X16510000Y4549779D01*
X16806314Y4106314D01*
X18076314Y2836314D01*
X18523045Y2537818D01*
X19050000Y2433000D01*
X24130000Y2433000D01*
X24656955Y2537818D01*
X25103686Y2836314D01*
X26740310Y4472938D01*
X27041720Y4472675D01*
X27731846Y4757829D01*
X28260316Y5285376D01*
X28546674Y5975004D01*
X28547325Y6721720D01*
X28262171Y7411846D01*
X28201124Y7473000D01*
X29869628Y7473000D01*
X30373000Y6969628D01*
X30373000Y5080000D01*
X30477818Y4553045D01*
X30776314Y4106314D01*
X31223045Y3807818D01*
X31750000Y3703000D01*
X33012433Y3703000D01*
X33225376Y3489684D01*
X33915004Y3203326D01*
X34661720Y3202675D01*
X35351846Y3487829D01*
X35880316Y4015376D01*
X36166674Y4705004D01*
X36167325Y5451720D01*
X35882171Y6141846D01*
X35354624Y6670316D01*
X34664996Y6956674D01*
X33918280Y6957325D01*
X33228154Y6672171D01*
X33127000Y6571194D01*
X33127000Y7540000D01*
X33022182Y8066955D01*
X32723686Y8513686D01*
X31413686Y9823686D01*
X31190222Y9973000D01*
X32412836Y9973000D01*
X32412675Y9788280D01*
X32697829Y9098154D01*
X33225376Y8569684D01*
X33915004Y8283326D01*
X34661720Y8282675D01*
X35351846Y8567829D01*
X35880316Y9095376D01*
X36166674Y9785004D01*
X36167325Y10531720D01*
X35882171Y11221846D01*
X35354624Y11750316D01*
X34664996Y12036674D01*
X34360432Y12036940D01*
X34073686Y12323686D01*
X33626955Y12622182D01*
X33100000Y12727000D01*
X28201838Y12727000D01*
X28260316Y12785376D01*
X28546674Y13475004D01*
X28547325Y14221720D01*
X28262171Y14911846D01*
X27734624Y15440316D01*
X27044996Y15726674D01*
X26298280Y15727325D01*
X25608154Y15442171D01*
X25392607Y15227000D01*
X24820372Y15227000D01*
X21954819Y18092553D01*
X22196674Y18675004D01*
X22197325Y19421720D01*
X21912171Y20111846D01*
X21704480Y20319900D01*
X21910316Y20525376D01*
X22196674Y21215004D01*
X22196940Y21519568D01*
X24200310Y23522938D01*
X24501720Y23522675D01*
X25191846Y23807829D01*
X25293000Y23908806D01*
X25293000Y20127567D01*
X25079684Y19914624D01*
X24793326Y19224996D01*
X24792675Y18478280D01*
X25077829Y17788154D01*
X25605376Y17259684D01*
X26295004Y16973326D01*
X27041720Y16972675D01*
X27731846Y17257829D01*
X27947393Y17473000D01*
X30188368Y17473000D01*
X32412938Y15248430D01*
X32412675Y14947020D01*
X32697829Y14256894D01*
X33225376Y13728424D01*
X33915004Y13442066D01*
X34661720Y13441415D01*
X35351846Y13726569D01*
X35880316Y14254116D01*
X36166674Y14943744D01*
X36167325Y15690460D01*
X35883951Y16376278D01*
X35883951Y19218910D01*
X35822799Y19543907D01*
X35630726Y19842396D01*
X35337656Y20042642D01*
X34989770Y20113091D01*
X33590230Y20113091D01*
X33265233Y20051939D01*
X32966744Y19859866D01*
X32766498Y19566796D01*
X32696049Y19218910D01*
X32696049Y18860063D01*
X31732426Y19823686D01*
X31285695Y20122182D01*
X30758740Y20227000D01*
X28047000Y20227000D01*
X28047000Y24122433D01*
X28260316Y24335376D01*
X28546674Y25025004D01*
X28547325Y25771720D01*
X28262171Y26461846D01*
X27734624Y26990316D01*
X27044996Y27276674D01*
X26298280Y27277325D01*
X25608154Y26992171D01*
X25400100Y26784480D01*
X25194624Y26990316D01*
X24504996Y27276674D01*
X23758280Y27277325D01*
X23068154Y26992171D01*
X22539684Y26464624D01*
X22253326Y25774996D01*
X22253060Y25470432D01*
X20249690Y23467062D01*
X19948280Y23467325D01*
X19258154Y23182171D01*
X18729684Y22654624D01*
X18443326Y21964996D01*
X18442675Y21218280D01*
X18727829Y20528154D01*
X18935520Y20320100D01*
X18729684Y20114624D01*
X18443326Y19424996D01*
X18442675Y18678280D01*
X18727829Y17988154D01*
X18944837Y17770767D01*
X19047818Y17253045D01*
X19175668Y17061704D01*
X14943686Y21293686D01*
X14496955Y21592182D01*
X13970000Y21697000D01*
X5080000Y21697000D01*
X4553045Y21592182D01*
X4106314Y21293686D01*
X1566314Y18753686D01*
X1267818Y18306955D01*
X1163000Y17780000D01*
X1163000Y15247567D01*
X949684Y15034624D01*
X663326Y14344996D01*
X662675Y13598280D01*
X277000Y13598280D01*
X277000Y27663000D01*
X37823000Y27663000D01*
X37823000Y277000D01*
M02*
