M48
;DRILL file {KiCad 4.0.7-e1-6374~58~ubuntu17.04.1} date Mon Jul 31 10:08:15 2017
;FORMAT={-:-/ absolute / metric / decimal}
FMAT,2
METRIC,TZ
T1C0.800
%
G90
G05
M71
T1
X2.54Y13.97
X2.54Y6.35
X5.08Y13.97
X5.08Y6.35
X7.62Y17.78
X7.62Y13.97
X7.62Y6.35
X7.62Y2.54
X10.16Y17.78
X10.16Y13.97
X10.16Y6.35
X10.16Y2.54
X12.7Y13.97
X12.7Y6.35
X15.24Y13.97
X15.24Y6.35
X17.78Y13.97
X17.78Y6.35
X20.32Y21.59
X20.32Y19.05
X20.32Y13.97
X20.32Y6.35
X24.13Y25.4
X26.67Y25.4
X26.67Y18.85
X26.67Y16.35
X26.67Y13.85
X26.67Y11.35
X26.67Y8.85
X26.67Y6.35
X29.21Y25.4
X34.29Y25.321
X34.29Y15.319
X34.29Y10.16
X34.29Y7.62
X34.29Y5.08
T0
M30
